<svg width="10" height="6" viewBox="0 0 10 6" fill="none" xmlns="http://www.w3.org/2000/svg">
<path d="M4.0496 5.75457C4.00136 5.72081 3.7951 5.59333 3.62543 5.47458C2.55834 4.7784 0.81175 2.96227 0.278623 2.01171C0.192957 1.86735 0.011644 1.50238 0 1.30738C0 1.12053 0.0598832 0.942408 0.181313 0.772437C0.350982 0.560555 0.617961 0.390584 0.933179 0.297449C1.15192 0.237494 1.80648 0.144359 1.81812 0.144359C2.53422 0.0512242 3.69779 0 4.98361 0C6.20872 0 7.32488 0.0512242 8.05179 0.127478C8.06344 0.13621 8.87685 0.229345 9.15547 0.331211C9.66448 0.518062 9.98053 0.883035 9.98053 1.27362V1.30738C9.96805 1.56175 9.652 2.0967 9.64036 2.0967C9.1064 2.99603 7.44547 4.77025 6.34179 5.48331C6.34179 5.48331 6.05818 5.68414 5.88103 5.77145C5.62652 5.90766 5.3113 5.97518 4.99609 5.97518C4.64427 5.97518 4.31658 5.89893 4.0496 5.75457" fill="#030229"/>
</svg>
