<svg width="764" height="839" viewBox="0 0 764 839" fill="none" xmlns="http://www.w3.org/2000/svg">
<rect width="764" height="839" rx="10" fill="white"/>
<path opacity="0.05" d="M29 136C29 133.239 31.2386 131 34 131H730C732.761 131 735 133.239 735 136V467C735 469.761 732.761 472 730 472H34C31.2386 472 29 469.761 29 467V136Z" fill="#605BFF"/>
<path opacity="0.05" d="M29 492C29 489.239 31.2386 487 34 487H730C732.761 487 735 489.239 735 492V823C735 825.761 732.761 828 730 828H34C31.2386 828 29 825.761 29 823V492Z" fill="#605BFF"/>
</svg>
