<svg width="326" height="249" viewBox="0 0 326 249" fill="none" xmlns="http://www.w3.org/2000/svg">
<g opacity="0.3">
<path d="M314.224 0.166764C313.897 -0.0555171 313.367 -0.0555171 313.04 0.166764C312.713 0.389045 312.713 0.749436 313.04 0.971717C313.367 1.194 313.897 1.194 314.224 0.971717C314.552 0.749445 314.552 0.389054 314.224 0.166764Z" fill="#030229"/>
<path d="M311.71 0.166764C311.383 -0.0555171 310.852 -0.0555171 310.525 0.166764C310.198 0.389045 310.198 0.749436 310.525 0.971717C310.852 1.194 311.383 1.194 311.71 0.971717C312.037 0.749445 312.037 0.389054 311.71 0.166764" fill="#030229"/>
<path d="M309.198 0.166764C308.871 -0.0555171 308.341 -0.0555171 308.013 0.166764C307.686 0.389045 307.686 0.749436 308.013 0.971717C308.341 1.194 308.871 1.194 309.198 0.971717C309.525 0.749445 309.525 0.389054 309.198 0.166764" fill="#030229"/>
</g>
<line opacity="0.05" x1="9.7998" y1="246.993" x2="308.118" y2="246.993" stroke="#030229"/>
<line opacity="0.05" x1="9.7998" y1="227.696" x2="308.118" y2="227.696" stroke="#030229"/>
<line opacity="0.05" x1="9.7998" y1="208.399" x2="308.118" y2="208.399" stroke="#030229"/>
<line opacity="0.05" x1="9.7998" y1="189.102" x2="308.118" y2="189.102" stroke="#030229"/>
<line opacity="0.05" x1="9.7998" y1="169.804" x2="308.118" y2="169.804" stroke="#030229"/>
<line opacity="0.05" x1="9.7998" y1="150.507" x2="308.118" y2="150.507" stroke="#030229"/>
<path d="M6 203.601L9.72875 206.13C13.4793 208.564 21.0458 213.763 28.4597 217.473C35.8954 221.325 43.2875 223.688 50.9194 218.725C58.3333 213.763 65.7472 201.002 73.3792 201.073C80.7712 201.002 88.2069 213.763 95.6208 217.473C103.187 221.325 110.667 216.126 118.081 218.725C125.625 221.325 133.126 231.25 140.54 227.54C148.041 223.688 155.586 206.201 163 207.382C170.479 208.564 178.046 217.787 185.46 227.783C192.895 237.873 200.287 237.873 207.919 231.564C216.37 225.524 220.495 223.162 229.582 219.835C239.168 216.783 245.207 221.325 252.621 216.197C260.187 211.163 267.667 196.039 275.081 193.511C282.625 191.077 290.126 201.002 297.54 202.349C305.041 203.601 312.586 196.039 316.293 192.258L320 188.477V248.974H316.271C312.521 248.974 304.954 248.974 297.54 248.974C290.105 248.974 282.712 248.974 275.081 248.974C267.667 248.974 260.253 248.974 252.621 248.974C245.229 248.974 237.793 248.974 230.379 248.974C222.813 248.974 215.333 248.974 207.919 248.974C200.375 248.974 192.874 248.974 185.46 248.974C177.959 248.974 170.414 248.974 163 248.974C155.521 248.974 147.954 248.974 140.54 248.974C133.105 248.974 125.712 248.974 118.081 248.974C110.667 248.974 103.253 248.974 95.6208 248.974C88.2287 248.974 80.793 248.974 73.3792 248.974C65.8126 248.974 58.3333 248.974 50.9194 248.974C43.3747 248.974 35.8736 248.974 28.4597 248.974C20.9586 248.974 13.4139 248.974 9.70694 248.974H6V203.601Z" fill="url(#paint0_linear_645_691)"/>
<g filter="url(#filter0_d_645_691)">
<path d="M6 194.716L9.72875 197.369C13.4793 199.923 21.0458 205.377 28.4597 209.27C35.8954 213.312 43.2875 215.791 50.9194 210.584C58.3333 205.377 65.7472 191.988 73.3792 192.063C80.7712 191.988 88.2069 205.377 95.6208 209.27C103.187 213.312 110.667 207.857 118.081 210.584C125.625 213.312 133.126 223.725 140.54 219.833C148.041 215.791 155.586 197.443 163 198.683C170.479 199.923 178.046 209.599 185.46 220.087C192.895 230.675 200.287 230.675 207.919 224.055C216.37 217.718 220.495 215.239 229.582 211.749C239.168 208.546 245.207 213.312 252.621 207.931C260.187 202.65 267.667 186.781 275.081 184.128C282.625 181.574 290.126 191.988 297.54 193.402C305.041 194.716 312.586 186.781 316.293 182.814L320 178.847" stroke="url(#paint1_linear_645_691)" stroke-width="4" stroke-linecap="round"/>
</g>
<g filter="url(#filter1_d_645_691)">
<mask id="path-12-inside-1_645_691" fill="white">
<ellipse cx="73.3698" cy="192.629" rx="3.17843" ry="2.64862"/>
</mask>
<ellipse cx="73.3698" cy="192.629" rx="3.17843" ry="2.64862" fill="white"/>
<path d="M76.5483 192.629H73.5483C73.5483 192.499 73.5818 192.384 73.6233 192.302C73.6428 192.264 73.6617 192.237 73.6751 192.22C73.6884 192.204 73.6967 192.197 73.6968 192.197C73.6969 192.197 73.6902 192.202 73.6752 192.211C73.6602 192.219 73.6386 192.23 73.6098 192.24C73.5519 192.26 73.4712 192.277 73.3698 192.277V195.277V198.277C76.2466 198.277 79.5483 196.237 79.5483 192.629H76.5483ZM73.3698 195.277V192.277C73.2685 192.277 73.1877 192.26 73.1299 192.24C73.1011 192.23 73.0794 192.219 73.0645 192.211C73.0495 192.202 73.0428 192.197 73.0429 192.197C73.043 192.197 73.0513 192.204 73.0646 192.22C73.078 192.237 73.0969 192.264 73.1163 192.302C73.1578 192.384 73.1914 192.499 73.1914 192.629H70.1914H67.1914C67.1914 196.237 70.493 198.277 73.3698 198.277V195.277ZM70.1914 192.629H73.1914C73.1914 192.759 73.1578 192.874 73.1163 192.956C73.0969 192.994 73.078 193.021 73.0646 193.037C73.0513 193.054 73.043 193.061 73.0429 193.061C73.0428 193.061 73.0495 193.055 73.0645 193.047C73.0794 193.038 73.1011 193.028 73.1299 193.018C73.1877 192.997 73.2685 192.98 73.3698 192.98V189.98V186.98C70.493 186.98 67.1914 189.02 67.1914 192.629H70.1914ZM73.3698 189.98V192.98C73.4712 192.98 73.5519 192.997 73.6098 193.018C73.6386 193.028 73.6602 193.038 73.6752 193.047C73.6902 193.055 73.6969 193.061 73.6968 193.061C73.6967 193.061 73.6884 193.054 73.6751 193.037C73.6617 193.021 73.6428 192.994 73.6233 192.956C73.5818 192.874 73.5483 192.759 73.5483 192.629H76.5483H79.5483C79.5483 189.02 76.2466 186.98 73.3698 186.98V189.98Z" fill="#5781FF" mask="url(#path-12-inside-1_645_691)"/>
</g>
<g filter="url(#filter2_d_645_691)">
<mask id="path-14-inside-2_645_691" fill="white">
<ellipse cx="110.602" cy="213.061" rx="3.17843" ry="2.64862"/>
</mask>
<ellipse cx="110.602" cy="213.061" rx="3.17843" ry="2.64862" fill="white"/>
<path d="M113.781 213.061H110.781C110.781 212.931 110.814 212.816 110.856 212.734C110.875 212.696 110.894 212.669 110.907 212.652C110.921 212.636 110.929 212.629 110.929 212.629C110.929 212.629 110.923 212.634 110.908 212.643C110.893 212.651 110.871 212.662 110.842 212.672C110.784 212.692 110.704 212.709 110.602 212.709V215.709V218.709C113.479 218.709 116.781 216.669 116.781 213.061H113.781ZM110.602 215.709V212.709C110.501 212.709 110.42 212.692 110.362 212.672C110.334 212.662 110.312 212.651 110.297 212.643C110.282 212.634 110.275 212.629 110.275 212.629C110.275 212.629 110.284 212.636 110.297 212.652C110.31 212.669 110.329 212.696 110.349 212.734C110.39 212.816 110.424 212.931 110.424 213.061H107.424H104.424C104.424 216.669 107.725 218.709 110.602 218.709V215.709ZM107.424 213.061H110.424C110.424 213.191 110.39 213.306 110.349 213.388C110.329 213.426 110.31 213.453 110.297 213.469C110.284 213.486 110.275 213.493 110.275 213.493C110.275 213.493 110.282 213.487 110.297 213.479C110.312 213.47 110.334 213.46 110.362 213.45C110.42 213.429 110.501 213.412 110.602 213.412V210.412V207.412C107.725 207.412 104.424 209.452 104.424 213.061H107.424ZM110.602 210.412V213.412C110.704 213.412 110.784 213.429 110.842 213.45C110.871 213.46 110.893 213.47 110.908 213.479C110.923 213.487 110.929 213.493 110.929 213.493C110.929 213.493 110.921 213.486 110.907 213.469C110.894 213.453 110.875 213.426 110.856 213.388C110.814 213.306 110.781 213.191 110.781 213.061H113.781H116.781C116.781 209.452 113.479 207.412 110.602 207.412V210.412Z" fill="#5781FF" mask="url(#path-14-inside-2_645_691)"/>
</g>
<g filter="url(#filter3_d_645_691)">
<mask id="path-16-inside-3_645_691" fill="white">
<ellipse cx="158.733" cy="200.196" rx="3.17843" ry="2.64862"/>
</mask>
<ellipse cx="158.733" cy="200.196" rx="3.17843" ry="2.64862" fill="white"/>
<path d="M161.912 200.196H158.912C158.912 200.066 158.945 199.951 158.987 199.869C159.006 199.831 159.025 199.804 159.038 199.788C159.052 199.772 159.06 199.765 159.06 199.765C159.06 199.764 159.053 199.77 159.038 199.778C159.024 199.787 159.002 199.797 158.973 199.807C158.915 199.828 158.834 199.845 158.733 199.845V202.845V205.845C161.61 205.845 164.912 203.805 164.912 200.196H161.912ZM158.733 202.845V199.845C158.632 199.845 158.551 199.828 158.493 199.807C158.464 199.797 158.443 199.787 158.428 199.778C158.413 199.77 158.406 199.764 158.406 199.765C158.406 199.765 158.415 199.772 158.428 199.788C158.441 199.804 158.46 199.831 158.48 199.869C158.521 199.951 158.555 200.066 158.555 200.196H155.555H152.555C152.555 203.805 155.856 205.845 158.733 205.845V202.845ZM155.555 200.196H158.555C158.555 200.327 158.521 200.441 158.48 200.523C158.46 200.562 158.441 200.588 158.428 200.605C158.415 200.621 158.406 200.628 158.406 200.628C158.406 200.628 158.413 200.623 158.428 200.614C158.443 200.606 158.464 200.595 158.493 200.585C158.551 200.565 158.632 200.548 158.733 200.548V197.548V194.548C155.856 194.548 152.555 196.588 152.555 200.196H155.555ZM158.733 197.548V200.548C158.834 200.548 158.915 200.565 158.973 200.585C159.002 200.595 159.024 200.606 159.038 200.614C159.053 200.623 159.06 200.628 159.06 200.628C159.06 200.628 159.052 200.621 159.038 200.605C159.025 200.588 159.006 200.562 158.987 200.523C158.945 200.441 158.912 200.327 158.912 200.196H161.912H164.912C164.912 196.588 161.61 194.548 158.733 194.548V197.548Z" fill="#5781FF" mask="url(#path-16-inside-3_645_691)"/>
</g>
<g filter="url(#filter4_d_645_691)">
<mask id="path-18-inside-4_645_691" fill="white">
<ellipse cx="228.203" cy="214.196" rx="3.17843" ry="2.64862"/>
</mask>
<ellipse cx="228.203" cy="214.196" rx="3.17843" ry="2.64862" fill="white"/>
<path d="M231.381 214.196H228.381C228.381 214.066 228.415 213.951 228.456 213.869C228.476 213.831 228.495 213.804 228.508 213.788C228.521 213.771 228.53 213.764 228.53 213.764C228.53 213.764 228.523 213.77 228.508 213.778C228.493 213.787 228.472 213.797 228.443 213.807C228.385 213.828 228.304 213.845 228.203 213.845V216.845V219.845C231.08 219.845 234.381 217.805 234.381 214.196H231.381ZM228.203 216.845V213.845C228.101 213.845 228.021 213.828 227.963 213.807C227.934 213.797 227.912 213.787 227.897 213.778C227.882 213.77 227.876 213.764 227.876 213.764C227.876 213.764 227.884 213.771 227.898 213.788C227.911 213.804 227.93 213.831 227.949 213.869C227.991 213.951 228.024 214.066 228.024 214.196H225.024H222.024C222.024 217.805 225.326 219.845 228.203 219.845V216.845ZM225.024 214.196H228.024C228.024 214.326 227.991 214.441 227.949 214.523C227.93 214.561 227.911 214.588 227.898 214.605C227.884 214.621 227.876 214.628 227.876 214.628C227.876 214.628 227.882 214.622 227.897 214.614C227.912 214.606 227.934 214.595 227.963 214.585C228.021 214.565 228.101 214.547 228.203 214.547V211.547V208.547C225.326 208.547 222.024 210.587 222.024 214.196H225.024ZM228.203 211.547V214.547C228.304 214.547 228.385 214.565 228.443 214.585C228.472 214.595 228.493 214.606 228.508 214.614C228.523 214.622 228.53 214.628 228.53 214.628C228.53 214.628 228.521 214.621 228.508 214.605C228.495 214.588 228.476 214.561 228.456 214.523C228.415 214.441 228.381 214.326 228.381 214.196H231.381H234.381C234.381 210.587 231.08 208.547 228.203 208.547V211.547Z" fill="#5781FF" mask="url(#path-18-inside-4_645_691)"/>
</g>
<g filter="url(#filter5_d_645_691)">
<mask id="path-20-inside-5_645_691" fill="white">
<ellipse cx="267.708" cy="182.791" rx="3.17843" ry="2.64862"/>
</mask>
<ellipse cx="267.708" cy="182.791" rx="3.17843" ry="2.64862" fill="white"/>
<path d="M270.886 182.791H267.886C267.886 182.661 267.92 182.546 267.961 182.464C267.981 182.426 268 182.399 268.013 182.383C268.026 182.366 268.035 182.359 268.035 182.359C268.035 182.359 268.028 182.365 268.013 182.373C267.998 182.381 267.976 182.392 267.948 182.402C267.89 182.422 267.809 182.44 267.708 182.44V185.44V188.44C270.585 188.44 273.886 186.4 273.886 182.791H270.886ZM267.708 185.44V182.44C267.606 182.44 267.526 182.422 267.468 182.402C267.439 182.392 267.417 182.381 267.402 182.373C267.387 182.365 267.381 182.359 267.381 182.359C267.381 182.359 267.389 182.366 267.402 182.383C267.416 182.399 267.435 182.426 267.454 182.464C267.496 182.546 267.529 182.661 267.529 182.791H264.529H261.529C261.529 186.4 264.831 188.44 267.708 188.44V185.44ZM264.529 182.791H267.529C267.529 182.921 267.496 183.036 267.454 183.118C267.435 183.156 267.416 183.183 267.402 183.199C267.389 183.216 267.381 183.223 267.381 183.223C267.381 183.223 267.387 183.217 267.402 183.209C267.417 183.2 267.439 183.19 267.468 183.18C267.526 183.159 267.606 183.142 267.708 183.142V180.142V177.142C264.831 177.142 261.529 179.182 261.529 182.791H264.529ZM267.708 180.142V183.142C267.809 183.142 267.89 183.159 267.948 183.18C267.976 183.19 267.998 183.2 268.013 183.209C268.028 183.217 268.035 183.223 268.035 183.223C268.035 183.223 268.026 183.216 268.013 183.199C268 183.183 267.981 183.156 267.961 183.118C267.92 183.036 267.886 182.921 267.886 182.791H270.886H273.886C273.886 179.182 270.585 177.142 267.708 177.142V180.142Z" fill="#5781FF" mask="url(#path-20-inside-5_645_691)"/>
</g>
<line x1="158.232" y1="247.114" x2="158.232" y2="202.844" stroke="#5781FF" stroke-dasharray="2 7"/>
<defs>
<filter id="filter0_d_645_691" x="0" y="176.847" width="326" height="61.7639" filterUnits="userSpaceOnUse" color-interpolation-filters="sRGB">
<feFlood flood-opacity="0" result="BackgroundImageFix"/>
<feColorMatrix in="SourceAlpha" type="matrix" values="0 0 0 0 0 0 0 0 0 0 0 0 0 0 0 0 0 0 127 0" result="hardAlpha"/>
<feOffset dy="4"/>
<feGaussianBlur stdDeviation="2"/>
<feColorMatrix type="matrix" values="0 0 0 0 0.376471 0 0 0 0 0.356863 0 0 0 0 1 0 0 0 0.17 0"/>
<feBlend mode="normal" in2="BackgroundImageFix" result="effect1_dropShadow_645_691"/>
<feBlend mode="normal" in="SourceGraphic" in2="effect1_dropShadow_645_691" result="shape"/>
</filter>
<filter id="filter1_d_645_691" x="66.1914" y="189.98" width="14.3564" height="13.2972" filterUnits="userSpaceOnUse" color-interpolation-filters="sRGB">
<feFlood flood-opacity="0" result="BackgroundImageFix"/>
<feColorMatrix in="SourceAlpha" type="matrix" values="0 0 0 0 0 0 0 0 0 0 0 0 0 0 0 0 0 0 127 0" result="hardAlpha"/>
<feOffset dy="4"/>
<feGaussianBlur stdDeviation="2"/>
<feColorMatrix type="matrix" values="0 0 0 0 0.376471 0 0 0 0 0.356863 0 0 0 0 1 0 0 0 0.17 0"/>
<feBlend mode="normal" in2="BackgroundImageFix" result="effect1_dropShadow_645_691"/>
<feBlend mode="normal" in="SourceGraphic" in2="effect1_dropShadow_645_691" result="shape"/>
</filter>
<filter id="filter2_d_645_691" x="103.424" y="210.412" width="14.3564" height="13.2972" filterUnits="userSpaceOnUse" color-interpolation-filters="sRGB">
<feFlood flood-opacity="0" result="BackgroundImageFix"/>
<feColorMatrix in="SourceAlpha" type="matrix" values="0 0 0 0 0 0 0 0 0 0 0 0 0 0 0 0 0 0 127 0" result="hardAlpha"/>
<feOffset dy="4"/>
<feGaussianBlur stdDeviation="2"/>
<feColorMatrix type="matrix" values="0 0 0 0 0.376471 0 0 0 0 0.356863 0 0 0 0 1 0 0 0 0.17 0"/>
<feBlend mode="normal" in2="BackgroundImageFix" result="effect1_dropShadow_645_691"/>
<feBlend mode="normal" in="SourceGraphic" in2="effect1_dropShadow_645_691" result="shape"/>
</filter>
<filter id="filter3_d_645_691" x="151.555" y="197.548" width="14.3564" height="13.2972" filterUnits="userSpaceOnUse" color-interpolation-filters="sRGB">
<feFlood flood-opacity="0" result="BackgroundImageFix"/>
<feColorMatrix in="SourceAlpha" type="matrix" values="0 0 0 0 0 0 0 0 0 0 0 0 0 0 0 0 0 0 127 0" result="hardAlpha"/>
<feOffset dy="4"/>
<feGaussianBlur stdDeviation="2"/>
<feColorMatrix type="matrix" values="0 0 0 0 0.376471 0 0 0 0 0.356863 0 0 0 0 1 0 0 0 0.17 0"/>
<feBlend mode="normal" in2="BackgroundImageFix" result="effect1_dropShadow_645_691"/>
<feBlend mode="normal" in="SourceGraphic" in2="effect1_dropShadow_645_691" result="shape"/>
</filter>
<filter id="filter4_d_645_691" x="221.024" y="211.547" width="14.3564" height="13.2972" filterUnits="userSpaceOnUse" color-interpolation-filters="sRGB">
<feFlood flood-opacity="0" result="BackgroundImageFix"/>
<feColorMatrix in="SourceAlpha" type="matrix" values="0 0 0 0 0 0 0 0 0 0 0 0 0 0 0 0 0 0 127 0" result="hardAlpha"/>
<feOffset dy="4"/>
<feGaussianBlur stdDeviation="2"/>
<feColorMatrix type="matrix" values="0 0 0 0 0.376471 0 0 0 0 0.356863 0 0 0 0 1 0 0 0 0.17 0"/>
<feBlend mode="normal" in2="BackgroundImageFix" result="effect1_dropShadow_645_691"/>
<feBlend mode="normal" in="SourceGraphic" in2="effect1_dropShadow_645_691" result="shape"/>
</filter>
<filter id="filter5_d_645_691" x="260.529" y="180.142" width="14.3564" height="13.2972" filterUnits="userSpaceOnUse" color-interpolation-filters="sRGB">
<feFlood flood-opacity="0" result="BackgroundImageFix"/>
<feColorMatrix in="SourceAlpha" type="matrix" values="0 0 0 0 0 0 0 0 0 0 0 0 0 0 0 0 0 0 127 0" result="hardAlpha"/>
<feOffset dy="4"/>
<feGaussianBlur stdDeviation="2"/>
<feColorMatrix type="matrix" values="0 0 0 0 0.376471 0 0 0 0 0.356863 0 0 0 0 1 0 0 0 0.17 0"/>
<feBlend mode="normal" in2="BackgroundImageFix" result="effect1_dropShadow_645_691"/>
<feBlend mode="normal" in="SourceGraphic" in2="effect1_dropShadow_645_691" result="shape"/>
</filter>
<linearGradient id="paint0_linear_645_691" x1="2.70806" y1="191.404" x2="319.997" y2="190.222" gradientUnits="userSpaceOnUse">
<stop stop-color="#5EC3FF" stop-opacity="0.04"/>
<stop offset="1" stop-color="#FD5DEF" stop-opacity="0.04"/>
</linearGradient>
<linearGradient id="paint1_linear_645_691" x1="1.44194" y1="178.847" x2="324.558" y2="178.847" gradientUnits="userSpaceOnUse">
<stop stop-color="#DBF2FF"/>
<stop offset="1" stop-color="#0062FF"/>
</linearGradient>
</defs>
</svg>
