<svg width="324" height="249" viewBox="0 0 324 249" fill="none" xmlns="http://www.w3.org/2000/svg">
<g opacity="0.3">
<path d="M312.261 0.166764C311.936 -0.0555171 311.409 -0.0555171 311.084 0.166764C310.759 0.389045 310.759 0.749436 311.084 0.971717C311.409 1.194 311.936 1.194 312.261 0.971717C312.586 0.749445 312.586 0.389054 312.261 0.166764Z" fill="#030229"/>
<path d="M309.762 0.166764C309.437 -0.0555171 308.91 -0.0555171 308.585 0.166764C308.26 0.389045 308.26 0.749436 308.585 0.971717C308.91 1.194 309.437 1.194 309.762 0.971717C310.087 0.749445 310.087 0.389054 309.762 0.166764" fill="#030229"/>
<path d="M307.267 0.166764C306.942 -0.0555171 306.415 -0.0555171 306.09 0.166764C305.765 0.389045 305.765 0.749436 306.09 0.971717C306.415 1.194 306.942 1.194 307.267 0.971717C307.592 0.749445 307.592 0.389054 307.267 0.166764" fill="#030229"/>
</g>
<line opacity="0.05" x1="9.77637" y1="246.993" x2="306.194" y2="246.993" stroke="#030229"/>
<line opacity="0.05" x1="9.77637" y1="227.696" x2="306.194" y2="227.696" stroke="#030229"/>
<line opacity="0.05" x1="9.77637" y1="208.399" x2="306.194" y2="208.399" stroke="#030229"/>
<line opacity="0.05" x1="9.77637" y1="189.102" x2="306.194" y2="189.102" stroke="#030229"/>
<line opacity="0.05" x1="9.77637" y1="169.804" x2="306.194" y2="169.804" stroke="#030229"/>
<line opacity="0.05" x1="9.77637" y1="150.507" x2="306.194" y2="150.507" stroke="#030229"/>
<path d="M6 203.601L9.705 206.13C13.4317 208.564 20.95 213.763 28.3167 217.473C35.705 221.325 43.05 223.688 50.6333 218.725C58 213.763 65.3667 201.002 72.95 201.073C80.295 201.002 87.6833 213.763 95.05 217.473C102.568 221.325 110 216.126 117.367 218.725C124.863 221.325 132.317 231.25 139.683 227.54C147.137 223.688 154.633 206.201 162 207.382C169.432 208.564 176.95 217.787 184.317 227.783C191.705 237.873 199.05 237.873 206.633 231.564C215.03 225.524 219.129 223.162 228.158 219.835C237.683 216.783 243.683 221.325 251.05 216.197C258.568 211.163 266 196.039 273.367 193.511C280.863 191.077 288.317 201.002 295.683 202.349C303.137 203.601 310.633 196.039 314.317 192.258L318 188.477V248.974H314.295C310.568 248.974 303.05 248.974 295.683 248.974C288.295 248.974 280.95 248.974 273.367 248.974C266 248.974 258.633 248.974 251.05 248.974C243.705 248.974 236.317 248.974 228.95 248.974C221.432 248.974 214 248.974 206.633 248.974C199.137 248.974 191.683 248.974 184.317 248.974C176.863 248.974 169.367 248.974 162 248.974C154.568 248.974 147.05 248.974 139.683 248.974C132.295 248.974 124.95 248.974 117.367 248.974C110 248.974 102.633 248.974 95.05 248.974C87.705 248.974 80.3167 248.974 72.95 248.974C65.4317 248.974 58 248.974 50.6333 248.974C43.1367 248.974 35.6833 248.974 28.3167 248.974C20.8633 248.974 13.3667 248.974 9.68333 248.974H6V203.601Z" fill="url(#paint0_linear_652_5)"/>
<g filter="url(#filter0_d_652_5)">
<path d="M6 194.716L9.705 197.369C13.4317 199.923 20.95 205.377 28.3167 209.27C35.705 213.312 43.05 215.791 50.6333 210.584C58 205.377 65.3667 191.988 72.95 192.063C80.295 191.988 87.6833 205.377 95.05 209.27C102.568 213.312 110 207.857 117.367 210.584C124.863 213.312 132.317 223.725 139.683 219.833C147.137 215.791 154.633 197.443 162 198.683C169.432 199.923 176.95 209.599 184.317 220.087C191.705 230.675 199.05 230.675 206.633 224.055C215.03 217.718 219.129 215.239 228.158 211.749C237.683 208.546 243.683 213.312 251.05 207.931C258.568 202.65 266 186.781 273.367 184.128C280.863 181.574 288.317 191.988 295.683 193.402C303.137 194.716 310.633 186.781 314.317 182.814L318 178.847" stroke="url(#paint1_linear_652_5)" stroke-width="4" stroke-linecap="round"/>
</g>
<g filter="url(#filter1_d_652_5)">
<mask id="path-12-inside-1_652_5" fill="white">
<ellipse cx="72.9404" cy="192.629" rx="3.15818" ry="2.64862"/>
</mask>
<ellipse cx="72.9404" cy="192.629" rx="3.15818" ry="2.64862" fill="white"/>
<path d="M76.0986 192.629H73.0986C73.0986 192.502 73.1311 192.39 73.1718 192.309C73.21 192.233 73.2454 192.203 73.2458 192.203C73.2463 192.203 73.2223 192.222 73.1668 192.242C73.1128 192.261 73.0367 192.277 72.9404 192.277V195.277V198.277C75.8253 198.277 79.0986 196.221 79.0986 192.629H76.0986ZM72.9404 195.277V192.277C72.8441 192.277 72.768 192.261 72.714 192.242C72.6585 192.222 72.6345 192.203 72.635 192.203C72.6354 192.203 72.6709 192.233 72.709 192.309C72.7497 192.39 72.7822 192.502 72.7822 192.629H69.7822H66.7822C66.7822 196.221 70.0555 198.277 72.9404 198.277V195.277ZM69.7822 192.629H72.7822C72.7822 192.756 72.7497 192.868 72.709 192.949C72.6709 193.024 72.6354 193.054 72.635 193.055C72.6345 193.055 72.6585 193.035 72.714 193.016C72.768 192.997 72.8441 192.98 72.9404 192.98V189.98V186.98C70.0555 186.98 66.7822 189.036 66.7822 192.629H69.7822ZM72.9404 189.98V192.98C73.0367 192.98 73.1128 192.997 73.1668 193.016C73.2223 193.035 73.2463 193.055 73.2458 193.055C73.2454 193.054 73.21 193.024 73.1718 192.949C73.1311 192.868 73.0986 192.756 73.0986 192.629H76.0986H79.0986C79.0986 189.036 75.8253 186.98 72.9404 186.98V189.98Z" fill="#5781FF" mask="url(#path-12-inside-1_652_5)"/>
</g>
<g filter="url(#filter2_d_652_5)">
<mask id="path-14-inside-2_652_5" fill="white">
<ellipse cx="109.936" cy="213.061" rx="3.15818" ry="2.64862"/>
</mask>
<ellipse cx="109.936" cy="213.061" rx="3.15818" ry="2.64862" fill="white"/>
<path d="M113.094 213.061H110.094C110.094 212.934 110.126 212.822 110.167 212.741C110.205 212.665 110.241 212.635 110.241 212.635C110.241 212.635 110.217 212.654 110.162 212.674C110.108 212.693 110.032 212.709 109.936 212.709V215.709V218.709C112.82 218.709 116.094 216.653 116.094 213.061H113.094ZM109.936 215.709V212.709C109.839 212.709 109.763 212.693 109.709 212.674C109.654 212.654 109.63 212.635 109.63 212.635C109.631 212.635 109.666 212.665 109.704 212.741C109.745 212.822 109.777 212.934 109.777 213.061H106.777H103.777C103.777 216.653 107.051 218.709 109.936 218.709V215.709ZM106.777 213.061H109.777C109.777 213.188 109.745 213.3 109.704 213.381C109.666 213.456 109.631 213.486 109.63 213.487C109.63 213.487 109.654 213.467 109.709 213.448C109.763 213.429 109.839 213.412 109.936 213.412V210.412V207.412C107.051 207.412 103.777 209.468 103.777 213.061H106.777ZM109.936 210.412V213.412C110.032 213.412 110.108 213.429 110.162 213.448C110.217 213.467 110.241 213.487 110.241 213.487C110.241 213.486 110.205 213.456 110.167 213.381C110.126 213.3 110.094 213.188 110.094 213.061H113.094H116.094C116.094 209.468 112.82 207.412 109.936 207.412V210.412Z" fill="#5781FF" mask="url(#path-14-inside-2_652_5)"/>
</g>
<g filter="url(#filter3_d_652_5)">
<mask id="path-16-inside-3_652_5" fill="white">
<ellipse cx="157.761" cy="200.196" rx="3.15818" ry="2.64862"/>
</mask>
<ellipse cx="157.761" cy="200.196" rx="3.15818" ry="2.64862" fill="white"/>
<path d="M160.919 200.196H157.919C157.919 200.069 157.951 199.957 157.992 199.876C158.03 199.801 158.066 199.771 158.066 199.771C158.067 199.77 158.043 199.79 157.987 199.809C157.933 199.829 157.857 199.845 157.761 199.845V202.845V205.845C160.646 205.845 163.919 203.789 163.919 200.196H160.919ZM157.761 202.845V199.845C157.664 199.845 157.588 199.829 157.534 199.809C157.479 199.79 157.455 199.77 157.455 199.771C157.456 199.771 157.491 199.801 157.529 199.876C157.57 199.957 157.603 200.069 157.603 200.196H154.603H151.603C151.603 203.789 154.876 205.845 157.761 205.845V202.845ZM154.603 200.196H157.603C157.603 200.323 157.57 200.436 157.529 200.516C157.491 200.592 157.456 200.622 157.455 200.622C157.455 200.623 157.479 200.603 157.534 200.583C157.588 200.564 157.664 200.548 157.761 200.548V197.548V194.548C154.876 194.548 151.603 196.604 151.603 200.196H154.603ZM157.761 197.548V200.548C157.857 200.548 157.933 200.564 157.987 200.583C158.043 200.603 158.067 200.623 158.066 200.622C158.066 200.622 158.03 200.592 157.992 200.516C157.951 200.436 157.919 200.323 157.919 200.196H160.919H163.919C163.919 196.604 160.646 194.548 157.761 194.548V197.548Z" fill="#5781FF" mask="url(#path-16-inside-3_652_5)"/>
</g>
<g filter="url(#filter4_d_652_5)">
<mask id="path-18-inside-4_652_5" fill="white">
<ellipse cx="226.787" cy="214.196" rx="3.15818" ry="2.64862"/>
</mask>
<ellipse cx="226.787" cy="214.196" rx="3.15818" ry="2.64862" fill="white"/>
<path d="M229.945 214.196H226.945C226.945 214.069 226.978 213.957 227.018 213.876C227.057 213.8 227.092 213.771 227.092 213.77C227.093 213.77 227.069 213.79 227.013 213.809C226.959 213.828 226.883 213.845 226.787 213.845V216.845V219.845C229.672 219.845 232.945 217.789 232.945 214.196H229.945ZM226.787 216.845V213.845C226.691 213.845 226.615 213.828 226.561 213.809C226.505 213.79 226.481 213.77 226.482 213.77C226.482 213.771 226.518 213.8 226.556 213.876C226.596 213.957 226.629 214.069 226.629 214.196H223.629H220.629C220.629 217.789 223.902 219.845 226.787 219.845V216.845ZM223.629 214.196H226.629C226.629 214.323 226.596 214.435 226.556 214.516C226.518 214.592 226.482 214.622 226.482 214.622C226.481 214.622 226.505 214.603 226.561 214.583C226.615 214.564 226.691 214.547 226.787 214.547V211.547V208.547C223.902 208.547 220.629 210.604 220.629 214.196H223.629ZM226.787 211.547V214.547C226.883 214.547 226.959 214.564 227.013 214.583C227.069 214.603 227.093 214.622 227.092 214.622C227.092 214.622 227.057 214.592 227.018 214.516C226.978 214.435 226.945 214.323 226.945 214.196H229.945H232.945C232.945 210.604 229.672 208.547 226.787 208.547V211.547Z" fill="#5781FF" mask="url(#path-18-inside-4_652_5)"/>
</g>
<g filter="url(#filter5_d_652_5)">
<mask id="path-20-inside-5_652_5" fill="white">
<ellipse cx="274.158" cy="185.649" rx="3.15818" ry="2.64862"/>
</mask>
<ellipse cx="274.158" cy="185.649" rx="3.15818" ry="2.64862" fill="white"/>
<path d="M277.316 185.649H274.316C274.316 185.522 274.349 185.409 274.39 185.329C274.428 185.253 274.463 185.223 274.464 185.223C274.464 185.223 274.44 185.242 274.385 185.262C274.331 185.281 274.254 185.297 274.158 185.297V188.297V191.297C277.043 191.297 280.316 189.241 280.316 185.649H277.316ZM274.158 188.297V185.297C274.062 185.297 273.986 185.281 273.932 185.262C273.876 185.242 273.852 185.223 273.853 185.223C273.853 185.223 273.889 185.253 273.927 185.329C273.967 185.409 274 185.522 274 185.649H271H268C268 189.241 271.273 191.297 274.158 191.297V188.297ZM271 185.649H274C274 185.776 273.967 185.888 273.927 185.969C273.889 186.044 273.853 186.074 273.853 186.075C273.852 186.075 273.876 186.055 273.932 186.036C273.986 186.017 274.062 186 274.158 186V183V180C271.273 180 268 182.056 268 185.649H271ZM274.158 183V186C274.254 186 274.331 186.017 274.385 186.036C274.44 186.055 274.464 186.075 274.464 186.075C274.463 186.074 274.428 186.044 274.39 185.969C274.349 185.888 274.316 185.776 274.316 185.649H277.316H280.316C280.316 182.056 277.043 180 274.158 180V183Z" fill="#5781FF" mask="url(#path-20-inside-5_652_5)"/>
</g>
<line x1="157.26" y1="247.114" x2="157.26" y2="202.844" stroke="#5781FF" stroke-dasharray="2 7"/>
<defs>
<filter id="filter0_d_652_5" x="0" y="176.847" width="324" height="61.764" filterUnits="userSpaceOnUse" color-interpolation-filters="sRGB">
<feFlood flood-opacity="0" result="BackgroundImageFix"/>
<feColorMatrix in="SourceAlpha" type="matrix" values="0 0 0 0 0 0 0 0 0 0 0 0 0 0 0 0 0 0 127 0" result="hardAlpha"/>
<feOffset dy="4"/>
<feGaussianBlur stdDeviation="2"/>
<feColorMatrix type="matrix" values="0 0 0 0 0.376471 0 0 0 0 0.356863 0 0 0 0 1 0 0 0 0.17 0"/>
<feBlend mode="normal" in2="BackgroundImageFix" result="effect1_dropShadow_652_5"/>
<feBlend mode="normal" in="SourceGraphic" in2="effect1_dropShadow_652_5" result="shape"/>
</filter>
<filter id="filter1_d_652_5" x="65.7822" y="189.98" width="14.3164" height="13.2972" filterUnits="userSpaceOnUse" color-interpolation-filters="sRGB">
<feFlood flood-opacity="0" result="BackgroundImageFix"/>
<feColorMatrix in="SourceAlpha" type="matrix" values="0 0 0 0 0 0 0 0 0 0 0 0 0 0 0 0 0 0 127 0" result="hardAlpha"/>
<feOffset dy="4"/>
<feGaussianBlur stdDeviation="2"/>
<feColorMatrix type="matrix" values="0 0 0 0 0.376471 0 0 0 0 0.356863 0 0 0 0 1 0 0 0 0.17 0"/>
<feBlend mode="normal" in2="BackgroundImageFix" result="effect1_dropShadow_652_5"/>
<feBlend mode="normal" in="SourceGraphic" in2="effect1_dropShadow_652_5" result="shape"/>
</filter>
<filter id="filter2_d_652_5" x="102.777" y="210.412" width="14.3164" height="13.2972" filterUnits="userSpaceOnUse" color-interpolation-filters="sRGB">
<feFlood flood-opacity="0" result="BackgroundImageFix"/>
<feColorMatrix in="SourceAlpha" type="matrix" values="0 0 0 0 0 0 0 0 0 0 0 0 0 0 0 0 0 0 127 0" result="hardAlpha"/>
<feOffset dy="4"/>
<feGaussianBlur stdDeviation="2"/>
<feColorMatrix type="matrix" values="0 0 0 0 0.376471 0 0 0 0 0.356863 0 0 0 0 1 0 0 0 0.17 0"/>
<feBlend mode="normal" in2="BackgroundImageFix" result="effect1_dropShadow_652_5"/>
<feBlend mode="normal" in="SourceGraphic" in2="effect1_dropShadow_652_5" result="shape"/>
</filter>
<filter id="filter3_d_652_5" x="150.603" y="197.548" width="14.3164" height="13.2972" filterUnits="userSpaceOnUse" color-interpolation-filters="sRGB">
<feFlood flood-opacity="0" result="BackgroundImageFix"/>
<feColorMatrix in="SourceAlpha" type="matrix" values="0 0 0 0 0 0 0 0 0 0 0 0 0 0 0 0 0 0 127 0" result="hardAlpha"/>
<feOffset dy="4"/>
<feGaussianBlur stdDeviation="2"/>
<feColorMatrix type="matrix" values="0 0 0 0 0.376471 0 0 0 0 0.356863 0 0 0 0 1 0 0 0 0.17 0"/>
<feBlend mode="normal" in2="BackgroundImageFix" result="effect1_dropShadow_652_5"/>
<feBlend mode="normal" in="SourceGraphic" in2="effect1_dropShadow_652_5" result="shape"/>
</filter>
<filter id="filter4_d_652_5" x="219.629" y="211.547" width="14.3164" height="13.2972" filterUnits="userSpaceOnUse" color-interpolation-filters="sRGB">
<feFlood flood-opacity="0" result="BackgroundImageFix"/>
<feColorMatrix in="SourceAlpha" type="matrix" values="0 0 0 0 0 0 0 0 0 0 0 0 0 0 0 0 0 0 127 0" result="hardAlpha"/>
<feOffset dy="4"/>
<feGaussianBlur stdDeviation="2"/>
<feColorMatrix type="matrix" values="0 0 0 0 0.376471 0 0 0 0 0.356863 0 0 0 0 1 0 0 0 0.17 0"/>
<feBlend mode="normal" in2="BackgroundImageFix" result="effect1_dropShadow_652_5"/>
<feBlend mode="normal" in="SourceGraphic" in2="effect1_dropShadow_652_5" result="shape"/>
</filter>
<filter id="filter5_d_652_5" x="267" y="183" width="14.3164" height="13.2972" filterUnits="userSpaceOnUse" color-interpolation-filters="sRGB">
<feFlood flood-opacity="0" result="BackgroundImageFix"/>
<feColorMatrix in="SourceAlpha" type="matrix" values="0 0 0 0 0 0 0 0 0 0 0 0 0 0 0 0 0 0 127 0" result="hardAlpha"/>
<feOffset dy="4"/>
<feGaussianBlur stdDeviation="2"/>
<feColorMatrix type="matrix" values="0 0 0 0 0.376471 0 0 0 0 0.356863 0 0 0 0 1 0 0 0 0.17 0"/>
<feBlend mode="normal" in2="BackgroundImageFix" result="effect1_dropShadow_652_5"/>
<feBlend mode="normal" in="SourceGraphic" in2="effect1_dropShadow_652_5" result="shape"/>
</filter>
<linearGradient id="paint0_linear_652_5" x1="2.72903" y1="191.404" x2="317.997" y2="190.237" gradientUnits="userSpaceOnUse">
<stop stop-color="#5EC3FF" stop-opacity="0.04"/>
<stop offset="1" stop-color="#FD5DEF" stop-opacity="0.04"/>
</linearGradient>
<linearGradient id="paint1_linear_652_5" x1="1.47097" y1="178.847" x2="322.529" y2="178.847" gradientUnits="userSpaceOnUse">
<stop stop-color="#DBF2FF"/>
<stop offset="1" stop-color="#0062FF"/>
</linearGradient>
</defs>
</svg>
