<svg width="32" height="32" viewBox="0 0 32 32" fill="none" xmlns="http://www.w3.org/2000/svg">
<path d="M32 16C32 24.8366 24.8366 32 16 32C7.16344 32 0 24.8366 0 16C0 7.16344 7.16344 0 16 0C24.8366 0 32 7.16344 32 16ZM3.51721 16C3.51721 22.8941 9.10595 28.4828 16 28.4828C22.8941 28.4828 28.4828 22.8941 28.4828 16C28.4828 9.10595 22.8941 3.51721 16 3.51721C9.10595 3.51721 3.51721 9.10595 3.51721 16Z" fill="#FFD66B"/>
<path d="M10.1303 28.9591C9.72613 29.8513 8.66878 30.2553 7.82672 29.7549C4.9873 28.0678 2.72591 25.5341 1.37475 22.4886C0.0235923 19.4431 -0.337297 16.0662 0.31735 12.8289C0.511493 11.8689 1.52053 11.356 2.45323 11.6552V11.6552C3.38593 11.9543 3.88595 12.9528 3.72222 13.9185C3.31522 16.3191 3.61909 18.8008 4.61704 21.0501C5.61499 23.2995 7.25092 25.1902 9.30387 26.4994C10.1297 27.0261 10.5344 28.0669 10.1303 28.9591V28.9591Z" fill="#FF8F6B"/>
<path d="M16 1.79189C16 0.802256 16.8047 -0.0103681 17.7882 0.100235C19.6998 0.315227 21.562 0.873796 23.2835 1.75394C25.5384 2.90676 27.4873 4.57835 28.9702 6.63124C30.4531 8.68413 31.4275 11.0597 31.8133 13.5626C32.199 16.0654 31.9852 18.6242 31.1894 21.0283C30.3935 23.4324 29.0383 25.6133 27.2353 27.3916C25.4323 29.1699 23.2329 30.4948 20.818 31.2574C18.4031 32.0199 15.8417 32.1984 13.3443 31.7781C11.4377 31.4572 9.61003 30.7942 7.94772 29.8261C7.09255 29.328 6.93165 28.1958 7.52216 27.4016V27.4016C8.11266 26.6075 9.23053 26.4554 10.1013 26.9256C11.2961 27.5706 12.5923 28.0173 13.9392 28.244C15.8771 28.5702 17.8648 28.4317 19.7388 27.8399C21.6128 27.2482 23.3196 26.22 24.7187 24.84C26.1179 23.4601 27.1695 21.7677 27.7872 19.902C28.4048 18.0364 28.5707 16.0508 28.2713 14.1085C27.9719 12.1662 27.2158 10.3228 26.0651 8.72971C24.9143 7.13664 23.4019 5.83946 21.6521 4.94486C20.436 4.32309 19.1294 3.90813 17.7857 3.71285C16.8064 3.57052 16 2.78152 16 1.79189V1.79189Z" fill="#5B93FF"/>
</svg>
