<svg width="12" height="12" viewBox="0 0 12 12" fill="none" xmlns="http://www.w3.org/2000/svg">
<path d="M9.37207 9.3916C9.60391 9.16139 9.9761 9.16151 10.208 9.3916L11.7412 10.6289H11.7676C12.0777 10.9423 12.0777 11.4512 11.7676 11.7646C11.4575 12.078 10.9546 12.0779 10.6445 11.7646L9.37207 10.3066C9.25197 10.1856 9.18465 10.021 9.18457 9.84961C9.18457 9.67801 9.25182 9.51273 9.37207 9.3916ZM5.14648 0C6.51144 0 7.82096 0.547882 8.78613 1.52344C9.75125 2.49898 10.293 3.82255 10.293 5.20215C10.2929 8.07502 7.9888 10.4043 5.14648 10.4043C2.30421 10.4042 0.000103369 8.07499 0 5.20215C0 2.32922 2.30415 5.43938e-05 5.14648 0Z" fill="#030229"/>
</svg>
