<svg width="26" height="8" viewBox="0 0 26 8" fill="none" xmlns="http://www.w3.org/2000/svg">
<path opacity="0.2" d="M0.295373 3.246C0.340575 3.20733 0.511251 3.042 0.670238 2.906C1.60234 2.05067 4.0339 0.650667 5.30658 0.223333C5.49985 0.154667 5.9885 0.00933325 6.24959 -7.6513e-08C6.49976 -6.55777e-08 6.73824 0.0479999 6.96581 0.145333C7.24949 0.281333 7.47706 0.495333 7.60175 0.748C7.68203 0.923333 7.80672 1.448 7.80672 1.45733C7.93142 2.03133 8 2.964 8 3.99467C8 4.97667 7.93142 5.87133 7.82932 6.454C7.81763 6.46333 7.69294 7.11533 7.55655 7.33867C7.30638 7.74667 6.81773 8 6.29479 8L6.24959 8C5.90901 7.99 5.19279 7.73667 5.19279 7.72733C3.9887 7.29933 1.61325 5.968 0.658548 5.08333C0.658548 5.08333 0.389673 4.856 0.272771 4.714C0.0904039 4.51 -3.05303e-07 4.25733 -2.94259e-07 4.00467C-2.81932e-07 3.72267 0.102094 3.46 0.295373 3.246" fill="#030229"/>
<path opacity="0.2" d="M25.7046 4.754C25.6594 4.79267 25.4887 4.958 25.3298 5.094C24.3977 5.94933 21.9661 7.34933 20.6934 7.77667C20.5001 7.84533 20.0115 7.99067 19.7504 8C19.5002 8 19.2618 7.952 19.0342 7.85467C18.7505 7.71867 18.5229 7.50467 18.3982 7.252C18.318 7.07667 18.1933 6.552 18.1933 6.54267C18.0686 5.96867 18 5.036 18 4.00533C18 3.02333 18.0686 2.12867 18.1707 1.546C18.1824 1.53667 18.3071 0.884666 18.4434 0.661333C18.6936 0.253333 19.1823 -1.8674e-07 19.7052 -1.63881e-07L19.7504 -1.61906e-07C20.091 0.00999985 20.8072 0.263333 20.8072 0.272667C22.0113 0.700667 24.3868 2.032 25.3415 2.91667C25.3415 2.91667 25.6103 3.144 25.7272 3.286C25.9096 3.49 26 3.74267 26 3.99533C26 4.27733 25.8979 4.54 25.7046 4.754Z" fill="#030229"/>
</svg>
