<svg width="14" height="4" viewBox="0 0 14 4" fill="none" xmlns="http://www.w3.org/2000/svg">
<path d="M13.1367 2.63672C13.6262 2.14726 13.6262 1.35282 13.1367 0.863281C12.6472 0.373785 11.8528 0.373784 11.3633 0.863281C10.8738 1.35278 10.8738 2.14722 11.3633 2.63672C11.8528 3.12622 12.6472 3.12622 13.1367 2.63672Z" fill="#0083CA" stroke="#B3B3BF" stroke-width="0.993105"/>
<mask id="path-2-inside-1_732_185" fill="white">
<path d="M8.23744 0.512567C7.55402 -0.170848 6.44598 -0.170848 5.76257 0.512567C5.07915 1.19598 5.07915 2.30402 5.76257 2.98744C6.44598 3.67085 7.55402 3.67085 8.23744 2.98744C8.92085 2.30405 8.92085 1.19601 8.23744 0.512567"/>
</mask>
<path d="M8.23744 0.512567C7.55402 -0.170848 6.44598 -0.170848 5.76257 0.512567C5.07915 1.19598 5.07915 2.30402 5.76257 2.98744C6.44598 3.67085 7.55402 3.67085 8.23744 2.98744C8.92085 2.30405 8.92085 1.19601 8.23744 0.512567" fill="#0083CA"/>
<path d="M8.23744 2.98744L7.53521 2.28521L7.53522 2.28519L8.23744 2.98744ZM8.23744 0.512567L7.53521 1.2148C7.23962 0.919214 6.76038 0.919214 6.4648 1.2148L5.76257 0.512567L5.06034 -0.189664C6.13158 -1.26091 7.86842 -1.26091 8.93967 -0.189664L8.23744 0.512567ZM5.76257 0.512567L6.4648 1.2148C6.16921 1.51038 6.16921 1.98962 6.4648 2.28521L5.76257 2.98744L5.06034 3.68967C3.98909 2.61842 3.98909 0.881583 5.06034 -0.189664L5.76257 0.512567ZM5.76257 2.98744L6.4648 2.28521C6.76038 2.58079 7.23962 2.58079 7.53521 2.28521L8.23744 2.98744L8.93967 3.68967C7.86842 4.76092 6.13158 4.76092 5.06034 3.68967L5.76257 2.98744ZM8.23744 2.98744L7.53522 2.28519C7.83077 1.98966 7.83081 1.51041 7.53519 1.21478L8.23744 0.512567L8.93968 -0.18965C10.0109 0.881605 10.0109 2.61845 8.93966 3.68968L8.23744 2.98744Z" fill="#B3B3BF" mask="url(#path-2-inside-1_732_185)"/>
<mask id="path-4-inside-2_732_185" fill="white">
<path d="M2.98744 0.512567C2.30402 -0.170848 1.19598 -0.170848 0.512564 0.512567C-0.170852 1.19598 -0.170852 2.30402 0.512564 2.98744C1.19598 3.67085 2.30402 3.67085 2.98744 2.98744C3.67085 2.30405 3.67085 1.19601 2.98744 0.512567"/>
</mask>
<path d="M2.98744 0.512567C2.30402 -0.170848 1.19598 -0.170848 0.512564 0.512567C-0.170852 1.19598 -0.170852 2.30402 0.512564 2.98744C1.19598 3.67085 2.30402 3.67085 2.98744 2.98744C3.67085 2.30405 3.67085 1.19601 2.98744 0.512567" fill="#0083CA"/>
<path d="M2.98744 2.98744L2.28521 2.28521L2.28522 2.28519L2.98744 2.98744ZM2.98744 0.512567L2.28521 1.2148C1.98962 0.919214 1.51038 0.919214 1.21479 1.2148L0.512564 0.512567L-0.189667 -0.189664C0.881581 -1.26091 2.61842 -1.26091 3.68967 -0.189664L2.98744 0.512567ZM0.512564 0.512567L1.21479 1.2148C0.91921 1.51038 0.91921 1.98962 1.21479 2.28521L0.512564 2.98744L-0.189667 3.68967C-1.26091 2.61842 -1.26091 0.881583 -0.189667 -0.189664L0.512564 0.512567ZM0.512564 2.98744L1.21479 2.28521C1.51038 2.58079 1.98962 2.58079 2.28521 2.28521L2.98744 2.98744L3.68967 3.68967C2.61842 4.76092 0.881581 4.76092 -0.189667 3.68967L0.512564 2.98744ZM2.98744 2.98744L2.28522 2.28519C2.58077 1.98966 2.58081 1.51041 2.28519 1.21478L2.98744 0.512567L3.68968 -0.18965C4.7609 0.881605 4.76094 2.61845 3.68965 3.68968L2.98744 2.98744Z" fill="#B3B3BF" mask="url(#path-4-inside-2_732_185)"/>
</svg>
