<svg width="30" height="8" viewBox="0 0 30 8" fill="none" xmlns="http://www.w3.org/2000/svg">
<path opacity="0.5" d="M0.258452 3.246C0.298004 3.20733 0.447346 3.042 0.586459 2.906C1.40205 2.05067 3.52966 0.650667 4.64325 0.223333C4.81237 0.154667 5.23994 0.00933326 5.46839 -6.69489e-08C5.68729 -5.73805e-08 5.89596 0.048 6.09508 0.145333C6.3433 0.281333 6.54243 0.495333 6.65153 0.748C6.72177 0.923333 6.83088 1.448 6.83088 1.45733C6.93999 2.03133 7 2.964 7 3.99467C7 4.97667 6.93999 5.87133 6.85066 6.454C6.84043 6.46333 6.73132 7.11533 6.61198 7.33867C6.39308 7.74667 5.96551 8 5.50794 8L5.46839 8C5.17038 7.99 4.54369 7.73667 4.54369 7.72733C3.49011 7.29933 1.41159 5.968 0.576231 5.08333C0.576231 5.08333 0.340965 4.856 0.238676 4.714C0.0791042 4.51 5.29162e-07 4.25733 5.40206e-07 4.00467C5.52533e-07 3.72267 0.0893334 3.46 0.258452 3.246" fill="#030229"/>
<path opacity="0.5" d="M29.7046 4.754C29.6594 4.79267 29.4887 4.958 29.3298 5.094C28.3977 5.94933 25.9661 7.34933 24.6934 7.77667C24.5001 7.84533 24.0115 7.99067 23.7504 8C23.5002 8 23.2618 7.952 23.0342 7.85467C22.7505 7.71867 22.5229 7.50467 22.3982 7.252C22.318 7.07667 22.1933 6.552 22.1933 6.54267C22.0686 5.96867 22 5.036 22 4.00533C22 3.02333 22.0686 2.12867 22.1707 1.546C22.1824 1.53667 22.3071 0.884666 22.4434 0.661333C22.6936 0.253333 23.1823 -1.8674e-07 23.7052 -1.63881e-07L23.7504 -1.61906e-07C24.091 0.00999985 24.8072 0.263333 24.8072 0.272667C26.0113 0.700667 28.3868 2.032 29.3415 2.91667C29.3415 2.91667 29.6103 3.144 29.7272 3.286C29.9096 3.49 30 3.74267 30 3.99533C30 4.27733 29.8979 4.54 29.7046 4.754Z" fill="#030229"/>
</svg>
