<svg width="36" height="36" viewBox="0 0 36 36" fill="none" xmlns="http://www.w3.org/2000/svg">
<g clip-path="url(#clip0_645_688)">
<path d="M15.6675 4.47639H11.1911C10.1624 4.47639 9.14371 4.67902 8.19329 5.0727C7.24286 5.46638 6.37928 6.0434 5.65186 6.77083C4.92443 7.49825 4.34741 8.36183 3.95373 9.31226C3.56005 10.2627 3.35742 11.2813 3.35742 12.3101C3.35742 13.3388 3.56005 14.3575 3.95373 15.3079C4.34741 16.2583 4.92443 17.1219 5.65186 17.8493C6.37928 18.5768 7.24286 19.1538 8.19329 19.5475C9.14371 19.9411 10.1624 20.1438 11.1911 20.1438H15.6675V26.8584H5.59562V31.3347H15.6675V35.8111H20.1439V31.3347H24.6203C26.6979 31.3347 28.6904 30.5094 30.1595 29.0403C31.6286 27.5712 32.454 25.5787 32.454 23.5011C32.454 21.4234 31.6286 19.4309 30.1595 17.9618C28.6904 16.4927 26.6979 15.6674 24.6203 15.6674H20.1439V8.95278H30.2158V4.47639H20.1439V0H15.6675V4.47639ZM20.1439 20.1438H24.6203C25.5107 20.1438 26.3646 20.4975 26.9943 21.1271C27.6239 21.7567 27.9776 22.6106 27.9776 23.5011C27.9776 24.3915 27.6239 25.2454 26.9943 25.875C26.3646 26.5046 25.5107 26.8584 24.6203 26.8584H20.1439V20.1438ZM15.6675 15.6674H11.1911C10.7502 15.6674 10.3137 15.5805 9.90633 15.4118C9.499 15.2431 9.1289 14.9958 8.81714 14.684C8.50539 14.3723 8.25809 14.0022 8.08937 13.5949C7.92065 13.1875 7.83381 12.751 7.83381 12.3101C7.83381 11.8692 7.92065 11.4326 8.08937 11.0253C8.25809 10.618 8.50539 10.2479 8.81714 9.93611C9.1289 9.62436 9.499 9.37706 9.90633 9.20834C10.3137 9.03962 10.7502 8.95278 11.1911 8.95278H15.6675V15.6674Z" fill="black"/>
</g>
<defs>
<clipPath id="clip0_645_688">
<rect width="35.8111" height="35.8111" fill="white"/>
</clipPath>
</defs>
</svg>
